<?xml version="1.0" encoding="UTF-8"?>
<svg width="96px" height="80px" viewBox="0 0 96 80" version="1.1" xmlns="http://www.w3.org/2000/svg" xmlns:xlink="http://www.w3.org/1999/xlink">
    <!-- Generator: sketchtool 64 (101010) - https://sketch.com -->
    <title>F6509778-4042-4EC6-A559-4C29D90D22F8</title>
    <desc>Created with sketchtool.</desc>
    <g id="04-Job-definition-v2" stroke="none" stroke-width="1" fill="none" fill-rule="evenodd">
        <g id="04.1.1-CodeEngine-JobDef-Configuration-Code--Empty" transform="translate(-1014.000000, -241.000000)">
            <g id="Group-12" transform="translate(966.000000, 152.000000)">
                <g id="illustration/empty-state/empty-jobs-copy" transform="translate(48.000000, 89.000000)">
                    <g id="illustration/empty-state/empty-jobs">
                        <polygon id="Star" fill="#DCDCDC" points="79.4778124 5.52218757 76 4.5 79.4778124 3.47781243 80.5 0 81.5221876 3.47781243 85 4.5 81.5221876 5.52218757 80.5 9"></polygon>
                        <polygon id="Star-Copy" fill="#DCDCDC" points="86.1827777 15.8172223 80 14 86.1827777 12.1827777 88 6 89.8172223 12.1827777 96 14 89.8172223 15.8172223 88 22"></polygon>
                        <rect id="Rectangle" fill="#F3F3F3" x="3.55271368e-14" y="6.03961325e-13" width="58.6666667" height="58.6666667"></rect>
                        <rect id="Rectangle-Copy-17" fill="#DCDCDC" x="10.6666667" y="10.6666667" width="58.6666667" height="58.6666667"></rect>
                        <rect id="Rectangle-Copy-18" fill="#A4A4A4" x="21" y="21" width="58.6666667" height="58.6666667"></rect>
                        <polygon id="Path" fill="#F3F3F3" fill-rule="nonzero" points="61.588831 40.5827484 64.411169 43.4172516 46.9218611 60.8314981 37.5796776 51.4080782 40.4203224 48.5919218 46.94 55.167"></polygon>
                    </g>
                </g>
            </g>
        </g>
    </g>
</svg>