<?xml version="1.0" encoding="UTF-8"?>
<svg width="30px" height="30px" viewBox="0 0 30 30" version="1.1" xmlns="http://www.w3.org/2000/svg" xmlns:xlink="http://www.w3.org/1999/xlink">
    <!-- Generator: sketchtool 64 (101010) - https://sketch.com -->
    <title>D75310D1-2355-429F-AC0C-3ADF1EF5AE39</title>
    <desc>Created with sketchtool.</desc>
    <g id="00-Top-Level" stroke="none" stroke-width="1" fill="none" fill-rule="evenodd">
        <g id="00.1.2-CodeEngine-World-Overview" transform="translate(-867.000000, -907.000000)" fill="#161616" fill-rule="nonzero">
            <path d="M882,907 C882.517767,907 882.9375,907.419733 882.9375,907.9375 C882.9375,908.336227 882.688583,908.676816 882.337665,908.81235 L882.337187,911.017175 C885.92826,911.116877 889.122489,912.804168 891.243076,915.40225 L893.288173,913.828164 C893.263331,913.743937 893.25,913.654775 893.25,913.5625 C893.25,913.044733 893.669733,912.625 894.1875,912.625 C894.705267,912.625 895.125,913.044733 895.125,913.5625 C895.125,914.080267 894.705267,914.5 894.1875,914.5 C894.009086,914.5 893.842312,914.450162 893.700341,914.363647 L891.654559,915.9364 C893.082717,917.902434 893.925,920.321604 893.925,922.9375 C893.925,923.621605 893.867395,924.292256 893.75677,924.944866 L895.270957,925.247417 C895.437314,924.985961 895.72965,924.8125 896.0625,924.8125 C896.580267,924.8125 897,925.232233 897,925.75 C897,926.267767 896.580267,926.6875 896.0625,926.6875 C895.599328,926.6875 895.214605,926.351615 895.138623,925.910136 L893.624897,925.607719 C892.795025,929.235522 890.310605,932.232765 887.007941,933.763142 L887.591,935.127 L887.625,935.125 C888.105784,935.125 888.502038,935.486913 888.556193,935.953168 L888.5625,936.0625 C888.5625,936.580267 888.142767,937 887.625,937 C887.107233,937 886.6875,936.580267 886.6875,936.0625 C886.6875,935.799724 886.795613,935.562198 886.969785,935.391978 L886.386568,934.029823 C885.028836,934.567198 883.548904,934.8625 882,934.8625 C880.202397,934.8625 878.497692,934.464755 876.969091,933.75247 L876.130837,935.431467 C876.282522,935.598032 876.375,935.819467 876.375,936.0625 C876.375,936.580267 875.955267,937 875.4375,937 C874.919733,937 874.5,936.580267 874.5,936.0625 C874.5,935.544733 874.919733,935.125 875.4375,935.125 C875.467697,935.125 875.497561,935.126428 875.527028,935.129219 L876.366728,933.450702 C873.37713,931.84543 871.151294,929.002216 870.374873,925.606714 L868.861377,925.910136 C868.785395,926.351615 868.400672,926.6875 867.9375,926.6875 C867.419733,926.6875 867,926.267767 867,925.75 C867,925.232233 867.419733,924.8125 867.9375,924.8125 C868.27035,924.8125 868.562686,924.985961 868.729043,925.247417 L870.24323,924.944866 C870.132605,924.292256 870.075,923.621605 870.075,922.9375 C870.075,920.321604 870.917283,917.902434 872.345441,915.9364 L870.299659,914.363647 C870.157688,914.450162 869.990914,914.5 869.8125,914.5 C869.294733,914.5 868.875,914.080267 868.875,913.5625 C868.875,913.044733 869.294733,912.625 869.8125,912.625 C870.330267,912.625 870.75,913.044733 870.75,913.5625 C870.75,913.654775 870.736669,913.743937 870.711827,913.828164 L872.756924,915.40225 C874.877511,912.804168 878.07174,911.116877 881.662813,911.017175 L881.662335,908.81235 C881.311417,908.676816 881.0625,908.336227 881.0625,907.9375 C881.0625,907.419733 881.482233,907 882,907 Z M882,911.6875 L881.98599,911.687509 C878.496729,911.691761 875.379611,913.284515 873.318953,915.781455 L873.29287,915.813178 L873.110766,916.041428 C873.089939,916.068235 873.069232,916.095139 873.048643,916.122138 C873.01147,916.170886 872.974578,916.220091 872.938083,916.269607 L873.048643,916.122138 C871.606439,918.013445 870.75,920.375457 870.75,922.9375 C870.75,923.691991 870.824273,924.429134 870.965906,925.142017 L870.905361,924.81139 C870.933154,924.977158 870.964573,925.141697 870.999533,925.304923 C871.724971,928.692133 873.975298,931.513868 876.997117,933.016667 C877.072315,933.054067 877.148318,933.090805 877.224792,933.126706 L876.997117,933.016667 C878.504032,933.76608 880.202802,934.1875 882,934.1875 C883.454331,934.1875 884.844207,933.911538 886.120121,933.409121 L886.120575,933.408943 L886.409269,933.290567 C886.448914,933.273661 886.488443,933.256534 886.527853,933.239187 C886.579119,933.216623 886.63038,933.193598 886.681435,933.170202 L886.527853,933.239187 C889.875159,931.765835 892.368195,928.708888 893.058167,925.017141 C893.068708,924.960727 893.078737,924.904697 893.088349,924.848525 L893.058167,925.017141 C893.184131,924.343161 893.25,923.648023 893.25,922.9375 C893.25,920.338882 892.368934,917.946048 890.889234,916.041428 C890.829312,915.964304 890.768698,915.888335 890.70713,915.813178 L890.681047,915.781455 C888.677536,913.353761 885.675349,911.780798 882.303432,911.691513 L882,911.6875 Z M882,913.825 C887.032695,913.825 891.1125,917.904805 891.1125,922.9375 C891.1125,927.970195 887.032695,932.05 882,932.05 C876.967305,932.05 872.8875,927.970195 872.8875,922.9375 C872.8875,917.904805 876.967305,913.825 882,913.825 Z M881.169737,925.349285 L878.529499,930.63049 C879.58804,931.108774 880.76293,931.375 882,931.375 C883.016706,931.375 883.991411,931.195174 884.894045,930.865593 L885.011499,930.821707 L885.011499,930.821707 L882.685287,925.394365 C882.46723,925.455058 882.237404,925.4875 882,925.4875 C881.709321,925.4875 881.430003,925.438864 881.169737,925.349285 Z M884.412824,923.764735 C884.215991,924.338982 883.819923,924.820723 883.307123,925.127458 L885.632597,930.555162 C887.829259,929.505768 889.500984,927.534208 890.14673,925.141526 L890.202784,924.922073 L890.202784,924.922073 Z M879.58683,923.763726 L873.797216,924.922073 L873.736587,924.650929 C874.241217,927.09732 875.804892,929.15673 877.927128,930.328673 L880.566583,925.046786 C880.114866,924.739214 879.767086,924.290332 879.58683,923.763726 Z M882,921.0625 C880.964466,921.0625 880.125,921.901966 880.125,922.9375 C880.125,923.973034 880.964466,924.8125 882,924.8125 C883.035534,924.8125 883.875,923.973034 883.875,922.9375 C883.875,921.901966 883.035534,921.0625 882,921.0625 Z M875.111341,918.064171 C874.135846,919.440571 873.5625,921.12208 873.5625,922.9375 C873.5625,923.468446 873.611541,923.987939 873.705342,924.491694 L873.665429,924.259273 L873.665429,924.259273 L879.455,923.099 L879.45,922.9375 C879.45,922.473065 879.574161,922.03763 879.791101,921.662576 Z M888.889371,918.065175 L884.210068,921.664599 C884.426285,922.039195 884.55,922.4739 884.55,922.9375 C884.55,922.992156 884.54828,923.046411 884.544892,923.100213 L890.334571,924.259273 L890.294658,924.491694 C890.388459,923.987939 890.4375,923.468446 890.4375,922.9375 C890.4375,921.122521 889.864433,919.441389 888.889371,918.065175 Z M881.66236,914.506632 C878.982844,914.612082 876.624392,915.967103 875.153558,918.005142 L875.111604,918.0638 C875.241861,917.880031 875.379287,917.701701 875.523475,917.529219 L880.202374,921.128898 C880.587726,920.74587 881.0948,920.485166 881.660477,920.409906 Z M882.33764,914.506632 L882.336484,920.409503 C882.902894,920.484168 883.410706,920.744734 883.796625,921.127904 L888.476525,917.529219 L888.627311,917.714853 C887.147176,915.839201 884.887817,914.606992 882.33764,914.506632 Z" id="Kuberentes-pictogram"></path>
        </g>
    </g>
</svg>