<?xml version="1.0" encoding="UTF-8"?>
<svg width="31px" height="31px" viewBox="0 0 31 31" version="1.1" xmlns="http://www.w3.org/2000/svg" xmlns:xlink="http://www.w3.org/1999/xlink">
    <!-- Generator: sketchtool 64 (101010) - https://sketch.com -->
    <title>5018EEDC-8726-43E5-B193-917D1178B406</title>
    <desc>Created with sketchtool.</desc>
    <g id="00-Top-Level" stroke="none" stroke-width="1" fill="none" fill-rule="evenodd">
        <g id="00.1.2-CodeEngine-World-Overview" transform="translate(-481.000000, -691.000000)" fill="#000000">
            <g id="pictograms/time/speed" transform="translate(481.000000, 691.000000)">
                <path d="M15.3604,-0.0003 C23.8304,-0.0003 30.7204,6.8907 30.7204,15.3607 C30.7204,23.8297 23.8304,30.7207 15.3604,30.7207 C6.8904,30.7207 0.0004,23.8297 0.0004,15.3607 C0.0004,6.8907 6.8904,-0.0003 15.3604,-0.0003 Z M15.3604,0.7207 C7.2884,0.7207 0.7204,7.2877 0.7204,15.3607 C0.7204,23.4327 7.2884,29.9997 15.3604,29.9997 C23.4324,29.9997 30.0004,23.4327 30.0004,15.3607 C30.0004,7.2877 23.4324,0.7207 15.3604,0.7207 Z M5.2796,21.1807 C5.3786,21.3527 5.3206,21.5727 5.1476,21.6717 L4.2816,22.1717 C4.2246,22.2047 4.1636,22.2207 4.1016,22.2207 C3.9776,22.2207 3.8566,22.1567 3.7896,22.0397 C3.6906,21.8677 3.7486,21.6487 3.9216,21.5487 L4.7886,21.0487 C4.9596,20.9497 5.1806,21.0067 5.2796,21.1807 Z M22.8982,19.2977 L26.7982,21.5487 C26.9712,21.6487 27.0292,21.8677 26.9302,22.0397 C26.8632,22.1567 26.7422,22.2207 26.6182,22.2207 C26.5562,22.2207 26.4952,22.2047 26.4382,22.1717 L22.5392,19.9207 C22.3662,19.8217 22.3072,19.6017 22.4072,19.4297 C22.5072,19.2557 22.7282,19.1987 22.8982,19.2977 Z M3.8604,14.9997 C4.0594,14.9997 4.2204,15.1607 4.2204,15.3607 C4.2204,15.5597 4.0594,15.7207 3.8604,15.7207 L2.3604,15.7207 C2.1614,15.7207 2.0004,15.5597 2.0004,15.3607 C2.0004,15.1607 2.1614,14.9997 2.3604,14.9997 L3.8604,14.9997 Z M28.3604,14.9997 C28.5594,14.9997 28.7204,15.1607 28.7204,15.3607 C28.7204,15.5597 28.5594,15.7207 28.3604,15.7207 L24.3604,15.7207 C24.1614,15.7207 24.0004,15.5597 24.0004,15.3607 C24.0004,15.1607 24.1614,14.9997 24.3604,14.9997 L28.3604,14.9997 Z M26.9294,8.6807 C27.0294,8.8527 26.9704,9.0727 26.7984,9.1717 L15.5404,15.6717 C15.4834,15.7047 15.4224,15.7207 15.3604,15.7207 C15.2364,15.7207 15.1154,15.6567 15.0484,15.5397 C14.9494,15.3677 15.0074,15.1487 15.1804,15.0487 L26.4384,8.5487 C26.6104,8.4497 26.8314,8.5067 26.9294,8.6807 Z M4.2814,8.5493 L6.0404,9.5643 C6.2134,9.6643 6.2714,9.8833 6.1724,10.0553 C6.1054,10.1723 5.9844,10.2363 5.8604,10.2363 C5.7984,10.2363 5.7374,10.2203 5.6804,10.1873 L3.9224,9.1723 C3.7494,9.0723 3.6904,8.8523 3.7904,8.6803 C3.8894,8.5073 4.1124,8.4503 4.2814,8.5493 Z M22.0405,3.7907 C22.2125,3.8907 22.2715,4.1107 22.1715,4.2827 L20.2905,7.5397 C20.2235,7.6567 20.1025,7.7207 19.9785,7.7207 C19.9165,7.7207 19.8555,7.7047 19.7985,7.6717 C19.6255,7.5727 19.5675,7.3527 19.6665,7.1807 L21.5485,3.9227 C21.6485,3.7487 21.8705,3.6917 22.0405,3.7907 Z M9.1721,3.9227 L10.4761,6.1807 C10.5751,6.3527 10.5171,6.5727 10.3441,6.6717 C10.2871,6.7047 10.2261,6.7207 10.1641,6.7207 C10.0401,6.7207 9.9191,6.6567 9.8521,6.5397 L8.5491,4.2827 C8.4491,4.1107 8.5081,3.8907 8.6811,3.7907 C8.8521,3.6917 9.0731,3.7487 9.1721,3.9227 Z M15.3604,1.9997 C15.5594,1.9997 15.7204,2.1607 15.7204,2.3607 L15.7204,5.3607 C15.7204,5.5597 15.5594,5.7207 15.3604,5.7207 C15.1614,5.7207 15.0004,5.5597 15.0004,5.3607 L15.0004,2.3607 C15.0004,2.1607 15.1614,1.9997 15.3604,1.9997 Z" id="Fill-20"></path>
            </g>
        </g>
    </g>
</svg>