<?xml version="1.0" encoding="UTF-8"?>
<svg width="23px" height="33px" viewBox="0 0 23 33" version="1.1" xmlns="http://www.w3.org/2000/svg" xmlns:xlink="http://www.w3.org/1999/xlink">
    <!-- Generator: sketchtool 64 (101010) - https://sketch.com -->
    <title>3BB15C64-EC0C-49F2-8AA6-883364A3A218</title>
    <desc>Created with sketchtool.</desc>
    <g id="00-Top-Level" stroke="none" stroke-width="1" fill="none" fill-rule="evenodd">
        <g id="00.1.2-CodeEngine-World-Overview" transform="translate(-479.000000, -410.000000)">
            <g id="Group-17" transform="translate(479.000000, 410.000000)">
                <g id="Group-9-Copy" transform="translate(0.000000, 5.585455)" fill="#000000">
                    <path d="M11.8578752,4.69418798 L11.8781457,4.70465746 L20.7548732,9.95409152 C20.808253,9.98565874 20.8428877,10.0401452 20.8491598,10.1004692 L20.8501635,10.123331 L20.6305455,24.0661706 L20.6258492,24.1054231 C20.3760019,25.2105223 19.7541901,26.2561134 19.1142443,26.4055458 C19.0090248,26.4301154 18.9035944,26.3656489 18.8787589,26.2615559 C18.8556974,26.164898 18.9102376,26.0680603 19.0023914,26.0350477 L19.0243071,26.0285915 C19.460483,25.926741 19.9999042,25.0334218 20.2289781,24.0842371 L20.2394753,24.0393275 L20.4567599,10.2291179 L11.67727,5.03710186 C11.5911028,4.98614514 11.5588582,4.87997896 11.5991041,4.79157054 L11.6096869,4.77151703 C11.6572329,4.69282962 11.7523303,4.65959619 11.8369674,4.68626457 L11.8578752,4.69418798 Z M4.14568223,0.133311828 L4.1655016,0.143627834 L6.72323475,1.65619557 C6.81603017,1.71107203 6.84628815,1.82997841 6.79081784,1.9217804 C6.7393097,2.0070251 6.63199464,2.03892449 6.54262951,1.99910945 L6.522359,1.98863997 L4.26083398,0.651266038 L4.26356834,3.93440527 C4.26364376,4.03371911 4.18813784,4.11562821 4.09079137,4.12688714 L4.06796355,4.12820704 C3.96757499,4.1282816 3.88477952,4.05358401 3.87339874,3.95727969 L3.87206463,3.93469626 L3.86931181,0.30999553 C3.86920935,0.175007609 4.00264414,0.0861785436 4.1243551,0.125100504 L4.14568223,0.133311828 Z" id="Shape" fill-rule="nonzero"></path>
                    <path d="M10.9578984,7.7933093 L0,1.37633107 L0,16.0065912 C0,16.5127833 0.269936285,16.9814255 0.710131729,17.2394663 L15.5850202,25.9590653 C16.3529499,26.4092226 17.2506205,26.5933674 18.1361625,26.4823971 L19.3744405,26.3272244 L18.147596,26.0999289 C17.5153235,25.9827888 17.1496802,25.6493378 17.0191911,25.0773104 C16.8879415,24.5019491 16.8454917,20.139647 16.8961111,12.0969715 L16.9122749,9.80573852 L11.9927625,6.83937047 L10.9578984,7.7933093 Z M0.391405947,16.0065912 L0.391405947,2.05546766 L11.0107492,8.27430658 L12.0425597,7.32291822 L16.5190144,10.0220993 L16.4997296,12.897293 C16.4561088,20.5074148 16.5006743,24.5636818 16.6372914,25.1625728 L16.6518476,25.2224484 C16.7436798,25.577814 16.9163506,25.8631489 17.1659256,26.0756699 L17.1957288,26.1002175 L17.1477586,26.0944634 C16.6693129,26.0306757 16.2053739,25.8725138 15.7845966,25.6258559 L0.909708058,16.9062568 C0.588484356,16.7179568 0.391405947,16.3759746 0.391405947,16.0065912 Z" id="Polygon-Copy" fill-rule="nonzero"></path>
                    <g id="Group" transform="translate(7.981417, 15.007398) rotate(26.000000) translate(-7.981417, -15.007398) translate(3.981417, 13.807398)">
                        <ellipse id="Oval-Copy-6" cx="0.704706882" cy="0.697162575" rx="1" ry="1"></ellipse>
                        <ellipse id="Oval-Copy-7" cx="3.90538706" cy="0.836408257" rx="1" ry="1"></ellipse>
                        <ellipse id="Oval-Copy-8" cx="7.17471683" cy="1.11489962" rx="1" ry="1"></ellipse>
                    </g>
                </g>
                <g id="Group-10-Copy" transform="translate(6.283636, 2.094545)">
                    <g id="Group-4" fill="#000000" fill-rule="nonzero">
                        <path d="M4.16977187,0.658450001 C4.20855881,0.64066088 4.25263995,0.642039497 4.28867351,0.662898391 L4.28867351,0.662898391 L8.0401033,2.83451417 L8.05290925,2.84301272 C8.07715372,2.86134489 8.09327759,2.88749458 8.10009828,2.91643119 C8.18554286,2.88567343 8.28250055,2.94635709 8.28250055,3.03882437 L8.28250055,3.03882437 L8.28250055,7.4041834 C8.28250055,7.45108379 8.25599245,7.49443653 8.21292636,7.51796867 L8.21292636,7.51796867 L4.28250185,9.66680798 C4.23927221,9.71221239 4.16678213,9.72445835 4.10856331,9.69264646 L4.10856331,9.69264646 L0.144347661,7.52652225 L0.130619205,7.51796643 C0.0957181421,7.49331236 0.0747734695,7.45442621 0.0747734695,7.41273698 L0.0747734695,7.41273698 L0.0757129054,3.03203743 C0.0837790151,2.96661675 0.142799301,2.91583644 0.214409833,2.91583644 L0.214409833,2.91583644 L0.230694383,2.91672142 C0.275221887,2.9215934 0.313360242,2.94619867 0.334997012,2.981011 L4.155501,0.666018798 Z M0.353773469,3.29709881 L0.354076553,7.33694988 L4.03877347,9.35009881 L4.03877347,5.43009881 L0.353773469,3.29709881 Z M8.00311855,3.26837123 L4.31825455,5.30279209 L4.31825455,9.34190545 L8.00311855,7.32839968 L8.00311855,3.26837123 Z M4.21426799,0.942429919 L0.613544149,3.1244313 L4.08377347,5.13309881 L4.10804094,5.11408848 L7.84977347,3.04709881 L4.21426799,0.942429919 Z" id="Combined-Shape"></path>
                    </g>
                    <g id="icon/image/code/16-copy" transform="translate(2.932364, 1.684743)" fill="#2C2C2C">
                        <path d="M2.63781818,1.18387352 L2.04218182,1.70181818 L1.92220364,1.59748933 L2.39701091,1.18387352 L1.92220364,0.770257708 L2.04218182,0.665928854 L2.63781818,1.18387352 Z M0.0850909091,1.18387352 L0.680727273,0.665928854 L0.800705455,0.770257708 L0.325898182,1.18387352 L0.800705455,1.59748933 L0.680727273,1.70181818 L0.0850909091,1.18387352 Z M1.05682909,1.88561455 L1.50100364,0.443952569 L1.66539927,0.482206482 L1.22122473,1.92379447 L1.05682909,1.88561455 Z" id="Fill"></path>
                    </g>
                </g>
                <g id="Group-10-Copy-2" transform="translate(14.661818, 0.000000)" fill="#000000" fill-rule="nonzero">
                    <g id="Group-4">
                        <path d="M4.16977187,0.658450001 C4.20855881,0.64066088 4.25263995,0.642039497 4.28867351,0.662898391 L4.28867351,0.662898391 L8.0401033,2.83451417 L8.05290925,2.84301272 C8.07715372,2.86134489 8.09327759,2.88749458 8.10009828,2.91643119 C8.18554286,2.88567343 8.28250055,2.94635709 8.28250055,3.03882437 L8.28250055,3.03882437 L8.28250055,7.4041834 C8.28250055,7.45108379 8.25599245,7.49443653 8.21292636,7.51796867 L8.21292636,7.51796867 L4.28250185,9.66680798 C4.23927221,9.71221239 4.16678213,9.72445835 4.10856331,9.69264646 L4.10856331,9.69264646 L0.144347661,7.52652225 L0.130619205,7.51796643 C0.0957181421,7.49331236 0.0747734695,7.45442621 0.0747734695,7.41273698 L0.0747734695,7.41273698 L0.0757129054,3.03203743 C0.0837790151,2.96661675 0.142799301,2.91583644 0.214409833,2.91583644 L0.214409833,2.91583644 L0.230694383,2.91672142 C0.275221887,2.9215934 0.313360242,2.94619867 0.334997012,2.981011 L4.155501,0.666018798 Z M0.353773469,3.29709881 L0.354076553,7.33694988 L4.03877347,9.35009881 L4.03877347,5.43009881 L0.353773469,3.29709881 Z M8.00311855,3.26837123 L4.31825455,5.30279209 L4.31825455,9.34190545 L8.00311855,7.32839968 L8.00311855,3.26837123 Z M4.21426799,0.942429919 L0.613544149,3.1244313 L4.08377347,5.13309881 L4.10804094,5.11408848 L7.84977347,3.04709881 L4.21426799,0.942429919 Z" id="Combined-Shape"></path>
                    </g>
                </g>
                <g id="icon/image/code/16-copy-3" transform="translate(18.850909, 2.094545)" fill="#2C2C2C">
                    <path d="M1.04727273,0.523636364 L1.96363636,0.523636364 L1.96363636,0.654545455 L1.04727273,0.654545455 L1.04727273,0.523636364 Z M0.392727273,0.693163636 L0.2232,0.523636364 L0.130909091,0.615927273 L0.392727273,0.877745455 L0.916363636,0.354109091 L0.824072727,0.261818182 L0.392727273,0.693163636 Z M1.04727273,1.44 L1.96363636,1.44 L1.96363636,1.57090909 L1.04727273,1.57090909 L1.04727273,1.44 Z M0.392727273,1.60952727 L0.2232,1.44 L0.130909091,1.53229091 L0.392727273,1.79410909 L0.916363636,1.27047273 L0.824072727,1.17818182 L0.392727273,1.60952727 Z" id="Fill"></path>
                </g>
            </g>
        </g>
    </g>
</svg>