<?xml version="1.0" encoding="UTF-8"?>
<svg width="24px" height="25px" viewBox="0 0 24 25" version="1.1" xmlns="http://www.w3.org/2000/svg" xmlns:xlink="http://www.w3.org/1999/xlink">
    <!-- Generator: sketchtool 64 (101010) - https://sketch.com -->
    <title>19E42C9F-C901-4EAE-BCD6-CE8F14641F41</title>
    <desc>Created with sketchtool.</desc>
    <g id="00-Top-Level" stroke="none" stroke-width="1" fill="none" fill-rule="evenodd" fill-opacity="0.85">
        <g id="00.1.2-CodeEngine-World-Overview" transform="translate(-864.000000, -415.000000)" fill="#000000">
            <path d="M881.534694,415 C881.685405,415 881.809618,415.113695 881.826594,415.260168 L881.828571,415.294515 L881.828,418.141 L884.669388,418.141491 C884.820099,418.141491 884.944312,418.255186 884.961288,418.401659 L884.963265,418.436006 L884.963,421.184 L887.706122,421.18481 C887.84524,421.18481 887.96178,421.281686 887.992238,421.411796 L888,421.479325 L888,438.757526 C888,438.896945 887.903334,439.013738 887.773506,439.044262 L887.706122,439.052041 L870.465306,439.052041 C870.326188,439.052041 870.209648,438.955165 870.17919,438.825056 L870.171429,438.757526 L870.171,436.008 L867.428571,436.008721 C867.27786,436.008721 867.153647,435.895027 867.136671,435.748553 L867.134694,435.714207 L867.134,432.867 L864.293878,432.86723 C864.143167,432.86723 864.018953,432.753536 864.001977,432.607062 L864,432.572716 L864,415.294515 C864,415.143477 864.113449,415.018994 864.259605,415.001981 L864.293878,415 L881.534694,415 Z M887.412049,421.77384 L870.759184,421.77384 L870.759184,438.462815 L887.412049,438.462815 L887.412049,421.77384 Z M884.375412,418.730324 L867.722253,418.730324 L867.722253,435.419594 L870.171,435.419 L870.171429,421.479325 C870.171429,421.339906 870.268095,421.223113 870.397923,421.192589 L870.465306,421.18481 L884.375,421.184 L884.375412,418.730324 Z M881.582946,427.664136 L882.033333,428.042589 L878.419831,432.361585 L876.342857,430.086744 L876.776483,429.689117 L878.400519,431.467648 L881.582946,427.664136 Z M881.24062,415.58903 L864.587755,415.58903 L864.587755,432.278004 L867.134,432.278 L867.134694,418.436006 C867.134694,418.284968 867.248142,418.160485 867.394299,418.143472 L867.428571,418.141491 L881.24,418.141 L881.24062,415.58903 Z" id="Combined-Shape"></path>
        </g>
    </g>
</svg>