<?xml version="1.0" encoding="UTF-8"?>
<svg width="269px" height="267px" viewBox="0 0 269 267" version="1.1" xmlns="http://www.w3.org/2000/svg" xmlns:xlink="http://www.w3.org/1999/xlink">
    <!-- Generator: sketchtool 64 (101010) - https://sketch.com -->
    <title>F17E125A-302A-458D-8F87-55A1831BA302</title>
    <desc>Created with sketchtool.</desc>
    <g id="000-Resources" stroke="none" stroke-width="1" fill="none" fill-rule="evenodd">
        <g id="Cheat-sheet-03" transform="translate(-617.000000, -343.000000)">
            <g id="illustration/empty-space/components" transform="translate(617.000000, 343.000000)">
                <g>
                    <g id="Group-7" transform="translate(141.000000, 100.000000)">
                        <polygon id="Star" fill="#DCDCDC" points="96.6730157 17.2610503 85.8021978 14.0659341 96.6730157 10.8708179 99.8681319 -4.97379915e-14 103.063248 10.8708179 113.934066 14.0659341 103.063248 17.2610503 99.8681319 28.1318681"></polygon>
                        <polygon id="Star-Copy" fill="#DCDCDC" points="115.054212 32.6380954 106.901099 30.2417582 115.054212 27.8454211 117.450549 19.6923077 119.846887 27.8454211 128 30.2417582 119.846887 32.6380954 117.450549 40.7912088"></polygon>
                        <polygon id="Polygon" fill="#DCDCDC" points="50.223689 11 97.8718043 39.3313118 50.223689 67.6626235 0 39.3313118"></polygon>
                        <polygon id="Polygon-Copy-3" fill-opacity="0.5" fill="#DCDCDC" points="50.223689 97 97.8718043 125.331312 50.223689 153.662624 2.06057393e-13 125.331312"></polygon>
                        <polygon id="Polygon-Copy" fill="#A4A4A4" points="50.223689 67.9843594 50.223689 123.290207 2.30926389e-13 96.3846597 2.30926389e-13 39.584059"></polygon>
                        <polygon id="Polygon-Copy-2" fill="#BEBEBE" transform="translate(74.047747, 81.437133) scale(-1, 1) translate(-74.047747, -81.437133) " points="97.8718043 67.9843594 97.8718043 123.290207 50.223689 96.3846597 50.223689 39.584059"></polygon>
                        <g id="icon/image/code/16-copy" transform="translate(32.550779, 28.198936)" fill="#8C8C8C">
                            <path d="M31.4361325,10.7412297 L24.1118445,18.0655177 L22.6365237,16.5901968 L28.4750275,10.7412297 L22.6365237,4.89226256 L24.1118445,3.41694169 L31.4361325,10.7412297 Z M0.0463268549,10.7412297 L7.37061484,3.41694169 L8.8459357,4.89226256 L3.00743185,10.7412297 L8.8459357,16.5901968 L7.37061484,18.0655177 L0.0463268549,10.7412297 Z M11.9953795,20.6645936 L17.4572057,0.277961129 L19.4787092,0.818912113 L14.016883,21.2044982 L11.9953795,20.6645936 Z" id="Fill"></path>
                        </g>
                    </g>
                    <g id="Group-6" opacity="0.5" transform="translate(167.000000, 0.000000)">
                        <polygon id="Polygon-Copy-4" fill="#DCDCDC" points="24.5850226 1.58257246e-13 47.9092748 13.8684743 24.5850226 27.7369486 1.00867255e-13 13.8684743"></polygon>
                        <polygon id="Polygon-Copy-5" fill-opacity="0.5" fill="#DCDCDC" points="24.5850226 41.9741797 47.9092748 55.842654 24.5850226 69.7111282 1.00867255e-13 55.842654"></polygon>
                        <polygon id="Polygon-Copy-6" fill="#A4A4A4" points="24.5850226 27.7707192 24.5850226 54.843512 -1.09562709e-13 41.6729641 -1.09562709e-13 13.8684743"></polygon>
                        <polygon id="Polygon-Copy-7" fill="#BEBEBE" transform="translate(36.247149, 34.355993) scale(-1, 1) translate(-36.247149, -34.355993) " points="47.9092748 27.7707192 47.9092748 54.843512 24.5850226 41.6729641 24.5850226 13.8684743"></polygon>
                    </g>
                    <g id="Group-6-Copy" opacity="0.5" transform="translate(23.000000, 197.000000)">
                        <g id="Group-9" transform="translate(-0.000000, 0.000000)">
                            <polygon id="Polygon-Copy-4" fill="#DCDCDC" points="24.5850226 1.58257246e-13 47.9092748 13.8684743 24.5850226 27.7369486 1.00867255e-13 13.8684743"></polygon>
                            <polygon id="Polygon-Copy-5" fill-opacity="0.5" fill="#DCDCDC" points="24.5850226 41.9741797 47.9092748 55.842654 24.5850226 69.7111282 1.00867255e-13 55.842654"></polygon>
                            <polygon id="Polygon-Copy-6" fill="#A4A4A4" points="24.5850226 27.7707192 24.5850226 54.843512 -1.09562709e-13 41.6729641 -1.09562709e-13 13.8684743"></polygon>
                            <polygon id="Polygon-Copy-7" fill="#BEBEBE" transform="translate(36.247149, 34.355993) scale(-1, 1) translate(-36.247149, -34.355993) " points="47.9092748 27.7707192 47.9092748 54.843512 24.5850226 41.6729641 24.5850226 13.8684743"></polygon>
                        </g>
                    </g>
                    <g id="Group-7-Copy-3" transform="translate(0.000000, 13.000000)">
                        <g id="Group-5">
                            <polygon id="Polygon" fill="#DCDCDC" opacity="0.5" points="50.223689 96.2527473 97.8718043 124.584059 50.223689 152.915371 0 124.584059"></polygon>
                            <polygon id="Star" fill="#DCDCDC" points="96.6730157 17.2610503 85.8021978 14.0659341 96.6730157 10.8708179 99.8681319 0 103.063248 10.8708179 113.934066 14.0659341 103.063248 17.2610503 99.8681319 28.1318681"></polygon>
                            <polygon id="Star-Copy" fill="#DCDCDC" points="115.054212 32.6380954 106.901099 30.2417582 115.054212 27.8454211 117.450549 19.6923077 119.846887 27.8454211 128 30.2417582 119.846887 32.6380954 117.450549 40.7912088"></polygon>
                            <polygon id="Polygon" fill="#DCDCDC" points="50.223689 11 97.8718043 39.3313118 50.223689 67.6626235 0 39.3313118"></polygon>
                            <polygon id="Polygon-Copy" fill="#A4A4A4" points="50.223689 67.9843594 50.223689 123.290207 -8.49528018e-14 96.3846597 -8.49528018e-14 39.584059"></polygon>
                            <polygon id="Polygon-Copy-2" fill="#BEBEBE" transform="translate(74.047747, 81.437133) scale(-1, 1) translate(-74.047747, -81.437133) " points="97.8718043 67.9843594 97.8718043 123.290207 50.223689 96.3846597 50.223689 39.584059"></polygon>
                            <g id="icon/image/code/16-copy" transform="translate(33.550779, 26.198936)" fill="#8C8C8C">
                                <path d="M14.7412297,4.37061484 L29.3898056,4.37061484 L29.3898056,6.46326855 L14.7412297,6.46326855 L14.7412297,4.37061484 Z M4.27796113,7.08060139 L1.56797458,4.37061484 L0.0926537098,5.8459357 L4.27796113,10.0312431 L12.648576,1.66062829 L11.1732551,0.18530742 L4.27796113,7.08060139 Z M14.7412297,19.0191908 L29.3898056,19.0191908 L29.3898056,21.1118445 L14.7412297,21.1118445 L14.7412297,19.0191908 Z M4.27796113,21.7291774 L1.56797458,19.0191908 L0.0926537098,20.4945117 L4.27796113,24.6798191 L12.648576,16.3092043 L11.1732551,14.8338834 L4.27796113,21.7291774 Z" id="Fill"></path>
                            </g>
                        </g>
                    </g>
                </g>
            </g>
        </g>
    </g>
</svg>