<?xml version="1.0" encoding="UTF-8"?>
<svg width="24px" height="28px" viewBox="0 0 24 28" version="1.1" xmlns="http://www.w3.org/2000/svg" xmlns:xlink="http://www.w3.org/1999/xlink">
    <!-- Generator: sketchtool 64 (101010) - https://sketch.com -->
    <title>97F76F77-8DFD-4DC4-A5CC-25D7205BCD02</title>
    <desc>Created with sketchtool.</desc>
    <g id="00-Top-Level" stroke="none" stroke-width="1" fill="none" fill-rule="evenodd">
        <g id="00.1.2-CodeEngine-World-Overview" transform="translate(-672.000000, -415.000000)" fill="#000000" fill-rule="nonzero">
            <g id="Group-4" transform="translate(672.000000, 415.000000)">
                <path d="M11.9159244,0.202236876 C11.9816771,0.175278143 12.0568716,0.179805253 12.119448,0.215809502 L12.119448,0.215809502 L23.6190732,6.83228827 L23.6370553,6.84262613 C23.7503735,6.8522331 23.85,6.94578472 23.85,7.07397858 L23.85,7.07397858 L23.85,20.5577854 C23.85,20.6405282 23.805898,20.7169981 23.7342795,20.7584368 L23.7342795,20.7584368 L12.2440171,27.4085102 C12.1756957,27.5057057 12.0431951,27.5362538 11.9384092,27.4756243 L11.9384092,27.4756243 L0.374772864,20.7848573 L0.349238165,20.7677318 C0.292817986,20.724203 0.259052405,20.6566058 0.259052405,20.5842058 L0.259052405,20.5842058 L0.259052405,7.10039903 L0.260811157,7.07121151 C0.270556635,6.99129449 0.319851978,6.92774338 0.384849573,6.89424002 C0.400525953,6.84046022 0.436888156,6.79248617 0.489707978,6.76215095 L0.489707978,6.76215095 L11.8883871,0.215718349 Z M0.722688768,7.50436364 L0.722688768,20.4501818 L11.8220524,26.8729243 L11.8220524,13.9939243 L0.722688768,7.50436364 Z M23.3863636,7.47790909 L12.2863636,13.9674545 L12.2863636,26.8464545 L23.3863636,20.4237273 L23.3863636,7.47790909 Z M12.0039053,0.683964207 L0.891052405,7.06592429 L12.0310524,13.5789243 L23.1330524,7.08792429 L12.0039053,0.683964207 Z M15.5880682,6.40909091 L13.9772727,8.01988636 L13.6528125,7.69542614 L14.9368466,6.40909091 L13.6528125,5.12275568 L13.9772727,4.79829545 L15.5880682,6.40909091 Z M8.68465909,6.40909091 L10.2954545,4.79829545 L10.6199148,5.12275568 L9.33588068,6.40909091 L10.6199148,7.69542614 L10.2954545,8.01988636 L8.68465909,6.40909091 Z M11.3125568,8.59148864 L12.51375,4.10795455 L12.9583295,4.2269233 L11.7571364,8.71022727 L11.3125568,8.59148864 Z" id="Combined-Shape"></path>
            </g>
        </g>
    </g>
</svg>