<?xml version="1.0" encoding="UTF-8"?>
<svg width="62px" height="69px" viewBox="0 0 62 69" version="1.1" xmlns="http://www.w3.org/2000/svg" xmlns:xlink="http://www.w3.org/1999/xlink">
    <!-- Generator: sketchtool 64 (101010) - https://sketch.com -->
    <title>38232CB6-F5DA-483C-8EF2-4068290CE814</title>
    <desc>Created with sketchtool.</desc>
    <g id="Empty-states" stroke="none" stroke-width="1" fill="none" fill-rule="evenodd">
        <g id="02.1.1-CodeEngine-Project-Components" transform="translate(-617.000000, -369.000000)">
            <g id="Group-15" transform="translate(608.000000, 364.000000)">
                <rect id="Rectangle" x="0" y="0" width="80" height="80"></rect>
                <g id="Group-8" transform="translate(8.767123, 0.000000)">
                    <polygon id="Rectangle-Copy-13" fill-opacity="0.5" fill="#DCDCDC" transform="translate(23.561644, 59.726027) scale(-1, 1) rotate(60.000000) translate(-23.561644, -59.726027) " points="12.0547945 53.0399802 35.0684932 39.4520548 35.0684932 66.552536 12.0547945 80"></polygon>
                    <g id="Group-4-Copy">
                        <polygon id="Rectangle" fill="#BEBEBE" points="23.6712329 33.8230049 46.9041096 20.239957 46.9041096 47.3307104 23.6712329 60.7733474"></polygon>
                        <polygon id="Rectangle" fill="#A4A4A4" transform="translate(12.054795, 40.559734) scale(-1, 1) translate(-12.054795, -40.559734) " points="0.438356164 33.8760871 23.6712329 20.2930391 23.6712329 47.3837926 0.438356164 60.8264296"></polygon>
                        <polygon id="Rectangle" fill="#DCDCDC" transform="translate(23.549253, 20.266695) scale(-1, 1) rotate(60.000000) translate(-23.549253, -20.266695) " points="11.9328148 13.5830479 35.1656915 -2.27373675e-13 35.1656915 27.0907534 11.9328148 40.5333904"></polygon>
                    </g>
                    <g id="icon/image/code/16-copy" transform="translate(16.986301, 14.150685)" fill="#8C8C8C">
                        <path d="M6.57534247,2.2897779 L12.3287671,2.2897779 L12.3287671,3.11222238 L6.57534247,3.11222238 L6.57534247,2.2897779 Z M2.46575342,3.3548435 L1.40136986,2.2897779 L0.821917808,2.86960126 L2.46575342,4.51449021 L5.75342466,1.22471231 L5.1739726,0.644888952 L2.46575342,3.3548435 Z M6.57534247,8.04688924 L12.3287671,8.04688924 L12.3287671,8.86933371 L6.57534247,8.86933371 L6.57534247,8.04688924 Z M2.46575342,9.11195483 L1.40136986,8.04688924 L0.821917808,8.62671259 L2.46575342,10.2716015 L5.75342466,6.98182364 L5.1739726,6.40200028 L2.46575342,9.11195483 Z" id="Fill"></path>
                    </g>
                    <polygon id="Star-Copy-2" fill="#DCDCDC" points="49.3393201 12.3280442 44.681063 10.9589041 49.3393201 9.58976399 50.7084602 4.93150685 52.0776004 9.58976399 56.7358575 10.9589041 52.0776004 12.3280442 50.7084602 16.9863014"></polygon>
                    <polygon id="Star-Copy-3" fill="#DCDCDC" points="56.4998034 21.0579719 52.9002411 20 56.4998034 18.9420281 57.5577753 15.3424658 58.6157472 18.9420281 62.2153096 20 58.6157472 21.0579719 57.5577753 24.6575342"></polygon>
                </g>
            </g>
        </g>
    </g>
</svg>