<?xml version="1.0" encoding="UTF-8"?>
<svg width="96px" height="82px" viewBox="0 0 96 82" version="1.1" xmlns="http://www.w3.org/2000/svg" xmlns:xlink="http://www.w3.org/1999/xlink">
    <!-- Generator: sketchtool 64 (101010) - https://sketch.com -->
    <title>86066AEF-A408-4F73-AFBD-46EFF93C6678</title>
    <desc>Created with sketchtool.</desc>
    <g id="03-Application-v2" stroke="none" stroke-width="1" fill="none" fill-rule="evenodd">
        <g id="03.1.2-CodeEngine-Application-Configuration-Code--Empty" transform="translate(-968.000000, -248.000000)">
            <g id="application-response-empty-copy" transform="translate(968.000000, 248.000000)">
                <path d="M39.8070911,1.46193926 C41.1376069,0.574928709 42.8685578,0.565572491 44.2085846,1.4381481 L85,28 L85,65 L0,65 L0,28 L39.8070911,1.46193926 Z" id="Path" fill="#8C8C8C"></path>
                <rect id="Rectangle" fill="#F3F3F3" x="10" y="11" width="65" height="59"></rect>
                <path d="M20.376,28 L20.376,24.4 L22.824,24.4 L22.824,28 L24.396,28 L24.396,19.624 L22.824,19.624 L22.824,23.104 L20.376,23.104 L20.376,19.624 L18.804,19.624 L18.804,28 L20.376,28 Z M29.7171429,28 L29.7171429,20.92 L32.2371429,20.92 L32.2371429,19.624 L25.6371429,19.624 L25.6371429,20.92 L28.1571429,20.92 L28.1571429,28 L29.7171429,28 Z M37.0542857,28 L37.0542857,20.92 L39.5742857,20.92 L39.5742857,19.624 L32.9742857,19.624 L32.9742857,20.92 L35.4942857,20.92 L35.4942857,28 L37.0542857,28 Z M42.5434286,28 L42.5434286,24.808 L44.1514286,24.808 C45.7714286,24.808 46.6714286,23.8 46.6714286,22.216 C46.6714286,20.62 45.7714286,19.624 44.1514286,19.624 L40.9714286,19.624 L40.9714286,28 L42.5434286,28 Z M43.8274286,23.524 L42.5434286,23.524 L42.5434286,20.908 L43.8274286,20.908 C44.6674286,20.908 45.0154286,21.244 45.0154286,21.988 L45.0154286,22.444 C45.0154286,23.188 44.6674286,23.524 43.8274286,23.524 Z M50.9485714,23.872 C51.7765714,23.872 52.1005714,23.464 52.1005714,22.96 L52.1005714,22.6 C52.1005714,22.096 51.7765714,21.688 50.9485714,21.688 C50.1205714,21.688 49.7965714,22.096 49.7965714,22.6 L49.7965714,22.96 C49.7965714,23.464 50.1205714,23.872 50.9485714,23.872 Z M50.9485714,28.132 C51.7765714,28.132 52.1005714,27.724 52.1005714,27.22 L52.1005714,26.86 C52.1005714,26.356 51.7765714,25.948 50.9485714,25.948 C50.1205714,25.948 49.7965714,26.356 49.7965714,26.86 L49.7965714,27.22 C49.7965714,27.724 50.1205714,28.132 50.9485714,28.132 Z M57.0017143,29.656 L60.9497143,18.88 L59.5697143,18.88 L55.6217143,29.656 L57.0017143,29.656 Z M64.3388571,29.656 L68.2868571,18.88 L66.9068571,18.88 L62.9588571,29.656 L64.3388571,29.656 Z" id="HTTP://" fill="#6F6F6F" fill-rule="nonzero"></path>
                <path d="M40.7914154,54.5618519 C42.1314422,55.4344275 43.8623931,55.4250713 45.1929089,54.5380607 L45.1929089,54.5380607 L85,28 L85,74 L8.64019967e-12,74 L8.64019967e-12,28 Z" id="Combined-Shape" fill="#BEBEBE"></path>
                <circle id="Oval" fill="#F3F3F3" cx="79" cy="65" r="17"></circle>
                <g id="Actions-/-Operations-/-arrows--horizontal-/-32" transform="translate(70.000000, 56.000000)" fill="#6F6F6F">
                    <path d="M5.5575,16.9425 L2.8725,14.25 L18,14.25 L18,12.75 L2.8725,12.75 L5.5575,10.0575 L4.5,9 L0,13.5 L4.5,18 L5.5575,16.9425 Z M18,4.5 L13.5,0 L12.4425,1.0575 L15.1275,3.75 L0,3.75 L0,5.25 L15.1275,5.25 L12.4425,7.9425 L13.5,9 L18,4.5 Z" id="Fill"></path>
                </g>
            </g>
        </g>
    </g>
</svg>