<?xml version="1.0" encoding="UTF-8"?>
<svg width="67px" height="105px" viewBox="0 0 67 105" version="1.1" xmlns="http://www.w3.org/2000/svg" xmlns:xlink="http://www.w3.org/1999/xlink">
    <!-- Generator: sketchtool 64 (101010) - https://sketch.com -->
    <title>05006EDA-D049-47AF-A12D-B0E1683B29A6</title>
    <desc>Created with sketchtool.</desc>
    <g id="Empty-states" stroke="none" stroke-width="1" fill="none" fill-rule="evenodd">
        <g id="00.2.2-CodeEngine-Projects--Empty" transform="translate(-325.000000, -282.000000)">
            <g id="Group-2" transform="translate(304.000000, 280.000000)">
                <g id="Group-14">
                    <g id="Group-13" transform="translate(21.083333, 2.750000)">
                        <g id="Group-3-Copy-4" transform="translate(0.000000, 18.791667)">
                            <polygon id="Path-4" fill="#DCDCDC" opacity="0.5" points="-6.51330841e-15 55.8522135 50.4873861 85.2750651 59.9642334 79.7146403 9.09684245 51.5768229"></polygon>
                            <path d="M60.38589,29.0234761 L11.8329671,1.30266168e-14 L11.8410238,10.7233887 L11.8410238,55.2676937 L49.0609389,76.865318 C52.0015955,77.2976624 54.3642714,76.9903022 56.1489665,75.9432373 C57.9336616,74.8961724 59.1317139,73.0058458 59.7431234,70.2722575 L60.38589,29.0234761 Z" id="Path-3" fill="#BEBEBE"></path>
                            <path d="M48.8581543,28.4130859 C48.6443721,56.4830187 48.7541811,71.4782172 49.1875814,73.3986816 C49.6209816,75.3191461 50.8729687,76.4732598 52.9435425,76.8610229 C50.4781514,77.1733126 47.9789934,76.6550968 45.8410406,75.3882755 L2.46938942,49.6888627 C1.25385348,48.9686098 0.508463542,47.6605183 0.508463542,46.2476163 L0.508463542,4.15999486 L0.508463542,4.15999486 L32.0841989,22.8508403 L35.1081543,20.0323893 L48.8581543,28.4130859 Z" id="Polygon-Copy" stroke="#DCDCDC" stroke-width="0.5" fill="#D8D8D8"></path>
                            <g id="Group" transform="translate(23.837455, 42.856801) rotate(26.000000) translate(-23.837455, -42.856801) translate(11.920789, 40.106801)" fill="#A4A4A4">
                                <circle id="Oval-Copy-6" cx="2.0625" cy="2.0625" r="2.0625"></circle>
                                <circle id="Oval-Copy-7" cx="11.4300868" cy="2.47444727" r="2.0625"></circle>
                                <circle id="Oval-Copy-8" cx="20.9985937" cy="3.29834181" r="2.0625"></circle>
                            </g>
                        </g>
                        <polygon id="Star" fill="#DCDCDC" points="18.1669965 8.41633685 16.0416667 7.79166667 18.1669965 7.16699649 18.7916667 5.04166667 19.4163368 7.16699649 21.5416667 7.79166667 19.4163368 8.41633685 18.7916667 10.5416667"></polygon>
                        <polygon id="Star" fill="#DCDCDC" points="23.9171064 4.49956024 21.0833333 3.66666667 23.9171064 2.8337731 24.75 0 25.5828936 2.8337731 28.4166667 3.66666667 25.5828936 4.49956024 24.75 7.33333333"></polygon>
                        <g id="Group-12" transform="translate(44.916667, 0.458333)">
                            <g id="Group-11-Copy-4">
                                <g id="Group-11-Copy-2">
                                    <g id="Group-4" transform="translate(0.252874, 0.000000)">
                                        <polygon id="Rectangle" fill="#D2D2D2" points="10.9241379 15.6091224 21.645977 9.34062381 21.645977 21.8428508 10.9241379 28.0465505"></polygon>
                                        <polygon id="Rectangle" fill="#DFDFDF" transform="translate(5.563218, 18.718084) scale(-1, 1) translate(-5.563218, -18.718084) " points="0.202298851 15.6336195 10.9241379 9.36512094 10.9241379 21.867348 0.202298851 28.0710477"></polygon>
                                        <polygon id="Rectangle" fill="#EEEEEE" transform="translate(10.867845, 9.352963) scale(-1, 1) rotate(60.000000) translate(-10.867845, -9.352963) " points="5.50692543 6.26849856 16.2287645 -4.81618079e-13 16.2287645 12.502227 5.50692543 18.7059267"></polygon>
                                    </g>
                                </g>
                            </g>
                            <g id="icon/image/code/16-copy" transform="translate(6.875000, 6.041667)" fill="#8C8C8C">
                                <path d="M7.9921875,3.125 L6.1875,4.9296875 L5.82398437,4.56617188 L7.26257813,3.125 L5.82398437,1.68382813 L6.1875,1.3203125 L7.9921875,3.125 Z M0.2578125,3.125 L2.0625,1.3203125 L2.42601562,1.68382813 L0.987421875,3.125 L2.42601562,4.56617188 L2.0625,4.9296875 L0.2578125,3.125 Z M3.20203125,5.57009375 L4.5478125,0.546875 L5.04590625,0.680164063 L3.700125,5.703125 L3.20203125,5.57009375 Z" id="Fill"></path>
                            </g>
                        </g>
                        <g id="Group-11-Copy-3" transform="translate(18.791667, 6.875000)">
                            <g id="Group-11-Copy-2">
                                <g id="Group-4" transform="translate(0.252874, 0.000000)">
                                    <polygon id="Rectangle" fill="#D2D2D2" points="10.9241379 15.6091224 21.645977 9.34062381 21.645977 21.8428508 10.9241379 28.0465505"></polygon>
                                    <polygon id="Rectangle" fill="#DFDFDF" transform="translate(5.563218, 18.718084) scale(-1, 1) translate(-5.563218, -18.718084) " points="0.202298851 15.6336195 10.9241379 9.36512094 10.9241379 21.867348 0.202298851 28.0710477"></polygon>
                                    <polygon id="Rectangle" fill="#EEEEEE" transform="translate(10.867845, 9.352963) scale(-1, 1) rotate(60.000000) translate(-10.867845, -9.352963) " points="5.50692543 6.26849856 16.2287645 -1.00984151e-13 16.2287645 12.502227 5.50692543 18.7059267"></polygon>
                                    <g id="icon/image/code/16-copy-3" transform="translate(7.538793, 5.958333)" fill="#8C8C8C">
                                        <path d="M3.4375,1.71875 L6.4453125,1.71875 L6.4453125,2.1484375 L3.4375,2.1484375 L3.4375,1.71875 Z M1.2890625,2.27519531 L0.732617187,1.71875 L0.4296875,2.02167969 L1.2890625,2.88105469 L3.0078125,1.16230469 L2.70488281,0.859375 L1.2890625,2.27519531 Z M3.4375,4.7265625 L6.4453125,4.7265625 L6.4453125,5.15625 L3.4375,5.15625 L3.4375,4.7265625 Z M1.2890625,5.28300781 L0.732617187,4.7265625 L0.4296875,5.02949219 L1.2890625,5.88886719 L3.0078125,4.17011719 L2.70488281,3.8671875 L1.2890625,5.28300781 Z" id="Fill"></path>
                                    </g>
                                </g>
                            </g>
                        </g>
                    </g>
                    <rect id="Rectangle" x="0" y="0" width="109.541667" height="109.541667"></rect>
                </g>
            </g>
        </g>
    </g>
</svg>