<?xml version="1.0" encoding="UTF-8"?>
<svg width="24px" height="24px" viewBox="0 0 24 24" version="1.1" xmlns="http://www.w3.org/2000/svg" xmlns:xlink="http://www.w3.org/1999/xlink">
    <!-- Generator: sketchtool 64 (101010) - https://sketch.com -->
    <title>2F8CB455-376A-4958-8685-490AE3F9B5A6</title>
    <desc>Created with sketchtool.</desc>
    <g id="00-Top-Level" stroke="none" stroke-width="1" fill="none" fill-rule="evenodd">
        <g id="00.1.2-CodeEngine-World-Overview" transform="translate(-867.000000, -690.000000)" fill="#000000" fill-rule="nonzero">
            <g id="serverless" transform="translate(867.000000, 690.000000)">
                <path d="M24,0 L24,24 L16.5,24 L16.5,23.46 L23.46,23.46 L23.46,0.54 L0.54,0.54 L0.54,7.5 L0,7.5 L0,0 L24,0 Z M15,9 L15,24 L11.25,24 L11.25,23.46 L14.46,23.46 L14.46,9.54 L0.54,9.54 L0.54,12.75 L0,12.75 L0,9 L15,9 Z M9.75,14.25 L9.75,24 L0,24 L0,14.25 L9.75,14.25 Z M9.21,14.79 L0.54,14.79 L0.54,23.46 L9.21,23.46 L9.21,14.79 Z" id="Shape"></path>
            </g>
        </g>
    </g>
</svg>