<?xml version="1.0" encoding="UTF-8"?>
<svg width="31px" height="31px" viewBox="0 0 31 31" version="1.1" xmlns="http://www.w3.org/2000/svg" xmlns:xlink="http://www.w3.org/1999/xlink">
    <!-- Generator: sketchtool 64 (101010) - https://sketch.com -->
    <title>AE85F86C-7441-4CBA-84E8-7A4B90B174E7</title>
    <desc>Created with sketchtool.</desc>
    <g id="00-Top-Level" stroke="none" stroke-width="1" fill="none" fill-rule="evenodd">
        <g id="00.1.2-CodeEngine-World-Overview" transform="translate(-481.000000, -908.000000)" fill="#000000">
            <g id="pictograms/networking/networking-02" transform="translate(481.000000, 908.000000)">
                <path d="M3.3599,12.7207 C4.8159,12.7207 5.9999,13.9047 5.9999,15.3607 C5.9999,16.8167 4.8159,17.9997 3.3599,17.9997 C1.9039,17.9997 0.7199,16.8167 0.7199,15.3607 C0.7199,13.9047 1.9039,12.7207 3.3599,12.7207 M27.3599,0.7207 C28.8159,0.7207 29.9999,1.9047 29.9999,3.3607 C29.9999,4.8167 28.8159,5.9997 27.3599,5.9997 C25.9039,5.9997 24.7199,4.8167 24.7199,3.3607 C24.7199,1.9047 25.9039,0.7207 27.3599,0.7207 M27.3599,12.7207 C28.8159,12.7207 29.9999,13.9047 29.9999,15.3607 C29.9999,16.8167 28.8159,17.9997 27.3599,17.9997 C25.9039,17.9997 24.7199,16.8167 24.7199,15.3607 C24.7199,13.9047 25.9039,12.7207 27.3599,12.7207 M27.3599,24.7207 C28.8159,24.7207 29.9999,25.9047 29.9999,27.3607 C29.9999,28.8167 28.8159,29.9997 27.3599,29.9997 C25.9039,29.9997 24.7199,28.8167 24.7199,27.3607 C24.7199,25.9047 25.9039,24.7207 27.3599,24.7207 M3.3599,18.7207 C5.0889,18.7207 6.5009,17.4027 6.6829,15.7207 L14.9999,15.7207 L14.9999,27.3607 C14.9999,27.5597 15.1609,27.7207 15.3599,27.7207 L24.0369,27.7207 C24.2189,29.4027 25.6309,30.7207 27.3599,30.7207 C29.2129,30.7207 30.7199,29.2127 30.7199,27.3607 C30.7199,25.5077 29.2129,23.9997 27.3599,23.9997 C25.6309,23.9997 24.2189,25.3187 24.0369,26.9997 L15.7199,26.9997 L15.7199,15.7207 L24.0369,15.7207 C24.2189,17.4027 25.6309,18.7207 27.3599,18.7207 C29.2129,18.7207 30.7199,17.2127 30.7199,15.3607 C30.7199,13.5077 29.2129,11.9997 27.3599,11.9997 C25.6309,11.9997 24.2189,13.3187 24.0369,14.9997 L15.7199,14.9997 L15.7199,3.7207 L24.0369,3.7207 C24.2189,5.4027 25.6309,6.7207 27.3599,6.7207 C29.2129,6.7207 30.7199,5.2127 30.7199,3.3607 C30.7199,1.5077 29.2129,-0.0003 27.3599,-0.0003 C25.6309,-0.0003 24.2189,1.3187 24.0369,2.9997 L15.3599,2.9997 C15.1609,2.9997 14.9999,3.1607 14.9999,3.3607 L14.9999,14.9997 L6.6829,14.9997 C6.5009,13.3187 5.0889,11.9997 3.3599,11.9997 C1.5069,11.9997 -0.0001,13.5077 -0.0001,15.3607 C-0.0001,17.2127 1.5069,18.7207 3.3599,18.7207" id="Fill-1"></path>
            </g>
        </g>
    </g>
</svg>