<?xml version="1.0" encoding="UTF-8"?>
<svg width="423px" height="286px" viewBox="0 0 423 286" version="1.1" xmlns="http://www.w3.org/2000/svg" xmlns:xlink="http://www.w3.org/1999/xlink">
    <!-- Generator: sketchtool 59.1 (101010) - https://sketch.com -->
    <title>3959AD07-0879-4FF8-B9D9-129E4732449D</title>
    <desc>Created with sketchtool.</desc>
    <g id="30-days-family-and-Friends" stroke="none" stroke-width="1" fill="none" fill-rule="evenodd">
        <g id="Request-Access" transform="translate(-841.000000, -105.000000)">
            <g id="Group-12" transform="translate(842.000000, 104.000000)">
                <g id="Group-3" transform="translate(199.392305, 65.000000) rotate(-330.000000) translate(-199.392305, -65.000000) translate(187.392305, -3.000000)" stroke="#000000" stroke-linejoin="round" stroke-width="2">
                    <polygon id="Path" stroke-linecap="square" transform="translate(12.000000, 68.000000) scale(-1, 1) translate(-12.000000, -68.000000) " points="18.8571429 0.283333333 24 135.716667 0 135.716667 5.14285714 0.283333333"></polygon>
                    <line x1="5.14285714" y1="16.15" x2="18.8571429" y2="16.15" id="Line-2-Copy-3" stroke-linecap="round"></line>
                    <line x1="4" y1="37.6833333" x2="20" y2="37.6833333" id="Line-2-Copy-5" stroke-linecap="round"></line>
                    <line x1="2.85714286" y1="64.8833333" x2="21.1428571" y2="64.8833333" id="Line-2-Copy-7" stroke-linecap="round"></line>
                    <line x1="1.71428571" y1="98.3166667" x2="22.2857143" y2="98.3166667" id="Line-2-Copy-10" stroke-linecap="round"></line>
                </g>
                <line x1="366" y1="235.110273" x2="369" y2="238.110273" id="Stroke-7" stroke="#000000" stroke-width="2"></line>
                <polygon id="Stroke-9" stroke="#000000" stroke-width="2" fill="#FFFFFF" points="112 285.110273 371 285.110273 371 113.110273 112 113.110273"></polygon>
                <polygon id="Stroke-20" stroke="#000000" stroke-width="2" fill="#FFFFFF" stroke-linejoin="round" points="112 113.110273 371 113.110273 371 94.1102725 112 94.1102725"></polygon>
                <polyline id="Stroke-24" stroke="#000000" stroke-width="2" stroke-linejoin="round" points="254 213.110273 240.5 180.110273 227 213.110273"></polyline>
                <path d="M250,168.917555 C250,175.097683 245.074843,180.110273 239.000725,180.110273 C232.925157,180.110273 228,175.097683 228,168.917555 C228,162.737428 232.925157,157.724838 239.000725,157.724838 L239.000725,10.1102725" id="Stroke-25" stroke="#000000" stroke-width="2" stroke-linecap="round" stroke-linejoin="round"></path>
                <g id="Group-8" transform="translate(48.000000, 157.110273)">
                    <polygon id="Stroke-29" stroke="#000000" stroke-width="2" stroke-linecap="round" stroke-linejoin="round" points="2 28 14 28 14 17 2 17"></polygon>
                    <polygon id="Stroke-31" stroke="#000000" stroke-width="2" stroke-linecap="round" stroke-linejoin="round" points="2 67 14 67 14 53 2 53"></polygon>
                    <polygon id="Stroke-32" stroke="#000000" stroke-width="2" stroke-linecap="round" stroke-linejoin="round" points="2 128 14 128 14 92 2 92"></polygon>
                    <g id="Group-7-Copy">
                        <path d="M15.6484468,7.81723551 C15.6484468,12.1354257 12.1447991,15.6359443 7.82274882,15.6359443 C3.50217313,15.6359443 0,12.1354257 0,7.81723551 C0,3.4990453 3.50217313,0 7.82274882,0 C12.1447991,0 15.6484468,3.4990453 15.6484468,7.81723551 Z" id="Stroke-36" fill="#EFC100"></path>
                        <path d="M11.1714162,4.39008639 C12.0620741,5.2593229 12.6165234,6.47478074 12.6165234,7.81694086" id="Stroke-37" stroke="#000000" stroke-width="2" stroke-linecap="round" stroke-linejoin="round"></path>
                        <path d="M7.8231912,3.02833162 C8.11073804,3.02833162 8.39386109,3.05337742 8.66666195,3.10199574" id="Stroke-38" stroke="#000000" stroke-width="2" stroke-linecap="round" stroke-linejoin="round"></path>
                    </g>
                </g>
                <g id="Group-7" transform="translate(154.000000, 157.110273)">
                    <polygon id="Stroke-29-Copy" stroke="#000000" stroke-width="2" stroke-linecap="round" stroke-linejoin="round" points="2 28 14 28 14 17 2 17"></polygon>
                    <polygon id="Stroke-31-Copy" stroke="#000000" stroke-width="2" stroke-linecap="round" stroke-linejoin="round" points="2 67 14 67 14 53 2 53"></polygon>
                    <polygon id="Stroke-32-Copy" stroke="#000000" stroke-width="2" stroke-linecap="round" stroke-linejoin="round" points="2 128 14 128 14 92 2 92"></polygon>
                    <g id="Group-7-Copy-2"></g>
                </g>
                <polygon id="Stroke-43" stroke="#000000" stroke-width="2" fill="#FFFFFF" stroke-linecap="round" stroke-linejoin="round" points="32 210.110273 190 210.110273 190 185.110273 32 185.110273"></polygon>
                <line x1="43" y1="206.110273" x2="60" y2="190.110273" id="Stroke-44" stroke="#000000" stroke-width="2" stroke-linecap="round" stroke-linejoin="round"></line>
                <line x1="55" y1="206.110273" x2="72" y2="190.110273" id="Stroke-45" stroke="#000000" stroke-width="2" stroke-linecap="round" stroke-linejoin="round"></line>
                <line x1="67" y1="206.110273" x2="84" y2="190.110273" id="Stroke-46" stroke="#000000" stroke-width="2" stroke-linecap="round" stroke-linejoin="round"></line>
                <line x1="79" y1="206.110273" x2="96" y2="190.110273" id="Stroke-47" stroke="#000000" stroke-width="2" stroke-linecap="round" stroke-linejoin="round"></line>
                <line x1="91" y1="206.110273" x2="108" y2="190.110273" id="Stroke-48" stroke="#000000" stroke-width="2" stroke-linecap="round" stroke-linejoin="round"></line>
                <line x1="103" y1="206.110273" x2="120" y2="190.110273" id="Stroke-49" stroke="#000000" stroke-width="2" stroke-linecap="round" stroke-linejoin="round"></line>
                <line x1="115" y1="206.110273" x2="132" y2="190.110273" id="Stroke-50" stroke="#000000" stroke-width="2" stroke-linecap="round" stroke-linejoin="round"></line>
                <line x1="127" y1="206.110273" x2="144" y2="190.110273" id="Stroke-51" stroke="#000000" stroke-width="2" stroke-linecap="round" stroke-linejoin="round"></line>
                <line x1="139" y1="206.110273" x2="156" y2="190.110273" id="Stroke-52" stroke="#000000" stroke-width="2" stroke-linecap="round" stroke-linejoin="round"></line>
                <line x1="151" y1="206.110273" x2="168" y2="190.110273" id="Stroke-53" stroke="#000000" stroke-width="2" stroke-linecap="round" stroke-linejoin="round"></line>
                <line x1="163" y1="206.110273" x2="180" y2="190.110273" id="Stroke-54" stroke="#000000" stroke-width="2" stroke-linecap="round" stroke-linejoin="round"></line>
                <g id="Group-3-Copy" transform="translate(32.000000, 224.110273)" stroke="#000000" stroke-linecap="round" stroke-linejoin="round" stroke-width="2">
                    <polygon id="Stroke-43" fill="#FFFFFF" points="0 25 158 25 158 0 0 0"></polygon>
                    <g id="Group-2" transform="translate(11.000000, 5.000000)">
                        <line x1="0" y1="16" x2="17" y2="0" id="Stroke-44"></line>
                        <line x1="12" y1="16" x2="29" y2="0" id="Stroke-45"></line>
                        <line x1="24" y1="16" x2="41" y2="-3.46944695e-18" id="Stroke-46"></line>
                        <line x1="36" y1="16" x2="53" y2="0" id="Stroke-47"></line>
                        <line x1="48" y1="16" x2="65" y2="0" id="Stroke-48"></line>
                        <line x1="60" y1="16" x2="77" y2="0" id="Stroke-49"></line>
                        <line x1="72" y1="16" x2="89" y2="0" id="Stroke-50"></line>
                        <line x1="84" y1="16" x2="101" y2="0" id="Stroke-51"></line>
                        <line x1="96" y1="16" x2="113" y2="0" id="Stroke-52"></line>
                        <line x1="108" y1="16" x2="125" y2="0" id="Stroke-53"></line>
                        <line x1="120" y1="16" x2="137" y2="0" id="Stroke-54"></line>
                    </g>
                </g>
                <polyline id="Stroke-68" stroke="#000000" stroke-width="2" stroke-linecap="round" stroke-linejoin="round" points="318.461081 136.158775 318.461081 133.586424 335.060644 124.110273 351.658733 133.586424 351.658733 152.538726 335.060644 162.016351 318.461081 152.538726 318.461081 147.949452 314.394136 147.949452"></polyline>
                <polyline id="Stroke-69" stroke="#000000" stroke-width="2" stroke-linejoin="round" points="318.461081 133.586277 335.060644 143.062428 351.658733 133.586277"></polyline>
                <line x1="335.060349" y1="143.062575" x2="335.060349" y2="162.016351" id="Stroke-70" stroke="#000000" stroke-width="2" stroke-linejoin="round"></line>
                <line x1="339.043537" y1="145.485388" x2="339.043537" y2="155.340173" id="Stroke-71" stroke="#000000" stroke-width="2" stroke-linecap="round" stroke-linejoin="round"></line>
                <line x1="341.920775" y1="143.842383" x2="341.920775" y2="153.697168" id="Stroke-72" stroke="#000000" stroke-width="2" stroke-linecap="round" stroke-linejoin="round"></line>
                <line x1="344.797865" y1="142.199968" x2="344.797865" y2="152.054753" id="Stroke-73" stroke="#000000" stroke-width="2" stroke-linecap="round" stroke-linejoin="round"></line>
                <line x1="347.675103" y1="140.556964" x2="347.675103" y2="150.413222" id="Stroke-74" stroke="#000000" stroke-width="2" stroke-linecap="round" stroke-linejoin="round"></line>
                <line x1="317.847648" y1="144.109195" x2="311.209002" y2="144.109195" id="Stroke-75" stroke="#000000" stroke-width="2" stroke-linecap="round" stroke-linejoin="round"></line>
                <line x1="318.461081" y1="140.269232" x2="310.595569" y2="140.269232" id="Stroke-76" stroke="#000000" stroke-width="2" stroke-linecap="round" stroke-linejoin="round"></line>
                <line x1="318.461081" y1="136.429269" x2="314.394136" y2="136.429269" id="Stroke-77" stroke="#000000" stroke-width="2" stroke-linecap="round" stroke-linejoin="round"></line>
                <line x1="335.060349" y1="143.062575" x2="351.658438" y2="133.586424" id="Stroke-78" stroke="#000000" stroke-width="2" stroke-linejoin="round"></line>
                <polyline id="Stroke-79" stroke="#000000" stroke-width="2" stroke-linecap="round" stroke-linejoin="round" points="284.650438 171.862738 284.650438 169.290387 301.250001 159.814236 317.84809 169.290387 317.84809 188.24269 301.250001 197.720315 284.650438 188.24269 284.650438 183.653416 280.583493 183.653416"></polyline>
                <polyline id="Stroke-80" stroke="#000000" stroke-width="2" stroke-linejoin="round" points="284.650438 169.29024 301.250001 178.766391 317.84809 169.29024"></polyline>
                <line x1="301.249706" y1="178.766686" x2="301.249706" y2="197.720462" id="Stroke-81" stroke="#000000" stroke-width="2" stroke-linejoin="round"></line>
                <line x1="305.232894" y1="181.189499" x2="305.232894" y2="191.044283" id="Stroke-82" stroke="#000000" stroke-width="2" stroke-linecap="round" stroke-linejoin="round"></line>
                <line x1="308.110132" y1="179.546494" x2="308.110132" y2="189.401279" id="Stroke-83" stroke="#000000" stroke-width="2" stroke-linecap="round" stroke-linejoin="round"></line>
                <line x1="310.987222" y1="177.904079" x2="310.987222" y2="187.758864" id="Stroke-84" stroke="#000000" stroke-width="2" stroke-linecap="round" stroke-linejoin="round"></line>
                <line x1="313.86446" y1="176.261075" x2="313.86446" y2="186.117333" id="Stroke-85" stroke="#000000" stroke-width="2" stroke-linecap="round" stroke-linejoin="round"></line>
                <line x1="284.038332" y1="179.813306" x2="277.398212" y2="179.813306" id="Stroke-86" stroke="#000000" stroke-width="2" stroke-linecap="round" stroke-linejoin="round"></line>
                <line x1="284.650438" y1="175.973343" x2="276.784926" y2="175.973343" id="Stroke-87" stroke="#000000" stroke-width="2" stroke-linecap="round" stroke-linejoin="round"></line>
                <line x1="284.650438" y1="172.133233" x2="280.583493" y2="172.133233" id="Stroke-88" stroke="#000000" stroke-width="2" stroke-linecap="round" stroke-linejoin="round"></line>
                <line x1="301.249706" y1="178.766686" x2="317.847795" y2="169.290535" id="Stroke-89" stroke="#000000" stroke-width="2" stroke-linejoin="round"></line>
                <g id="Group-11" transform="translate(270.000000, 135.610273)" stroke="#000000" stroke-linecap="round" stroke-linejoin="round" stroke-width="2">
                    <line x1="13" y1="6.5" x2="11" y2="6.5" id="Stroke-93"></line>
                    <line x1="19" y1="12.5" x2="7" y2="12.5" id="Stroke-94"></line>
                    <line x1="2" y1="12.5" x2="0" y2="12.5" id="Stroke-95"></line>
                    <line x1="24" y1="0.5" x2="12" y2="0.5" id="Stroke-91"></line>
                    <line x1="7" y1="0.5" x2="2" y2="0.5" id="Stroke-90"></line>
                    <line x1="28.0759266" y1="6.43432856" x2="19.1678728" y2="6.43432856" id="Stroke-92"></line>
                </g>
                <polygon id="Stroke-103" stroke="#000000" stroke-width="2" points="118 127.110273 156 127.110273 156 121.110273 118 121.110273"></polygon>
                <polygon id="Stroke-104" stroke="#000000" stroke-width="2" points="118 138.110273 156 138.110273 156 132.110273 118 132.110273"></polygon>
                <polygon id="Stroke-105" stroke="#000000" stroke-width="2" points="118 149.110273 156 149.110273 156 143.110273 118 143.110273"></polygon>
                <polygon id="Stroke-106" fill="#48D4BB" points="177 139.110273 225 139.110273 225 121.110273 177 121.110273"></polygon>
                <polygon id="Stroke-107" fill="#48D4BB" points="177 149.110273 215.902876 149.110273 215.902876 143.110273 177 143.110273"></polygon>
                <polygon id="Stroke-114" stroke="#000000" stroke-width="2" fill="#FFFFFF" stroke-linejoin="round" points="412.988192 200.110273 338.00198 200.110273 338.00198 245.111143 390.004254 245.111143 397 252.112718 404.00037 245.111143 412.988192 245.111143"></polygon>
                <line x1="346.318472" y1="211.089565" x2="406.632529" y2="211.089565" id="Stroke-115" stroke="#000000" stroke-width="2"></line>
                <line x1="346.318472" y1="221.059414" x2="406.632529" y2="221.059414" id="Stroke-116" stroke="#000000" stroke-width="2"></line>
                <polygon id="Stroke-117" fill="#5AA700" points="389 238.110273 405 238.110273 405 228.110273 389 228.110273"></polygon>
                <polygon id="Stroke-118" fill="#E0182D" points="368 238.110273 384 238.110273 384 228.110273 368 228.110273"></polygon>
                <g id="Group-10" transform="translate(376.244536, 231.110273)" stroke="#FFFFFF" stroke-width="2">
                    <line x1="0.755464314" y1="0" x2="4.75546431" y2="4" id="Stroke-119"></line>
                    <line x1="0.244535686" y1="0" x2="4.24453569" y2="4" id="Stroke-119-Copy" transform="translate(2.500000, 2.000000) scale(-1, 1) translate(-2.500000, -2.000000) "></line>
                </g>
                <polyline id="Stroke-121" stroke="#FFFFFF" stroke-width="2" points="402 231.110273 399 234.110273 397 232.110273"></polyline>
                <polygon id="Stroke-124" stroke="#000000" stroke-width="2" fill="#FFFFFF" stroke-linejoin="round" points="306.940628 228.110273 358.094311 228.110273 358.094311 258.110273 330.046123 258.110273 323 264.110273 316 258.110273 306.940628 258.110273"></polygon>
                <line x1="315" y1="237.110273" x2="350" y2="237.110273" id="Stroke-125" stroke="#000000" stroke-width="2"></line>
                <line x1="315" y1="247.110273" x2="350" y2="247.110273" id="Stroke-126" stroke="#000000" stroke-width="2"></line>
                <line x1="0" y1="285.110273" x2="421" y2="285.110273" id="Stroke-27" stroke="#000000" stroke-width="2" stroke-linecap="round" stroke-linejoin="round"></line>
                <path d="M222,267.110273 L284,267.110273 L284,219.110273 L222,219.110273 L222,267.110273 Z" id="Fill-111-Copy" stroke="#000000" stroke-width="2" fill="#FFFFFF" stroke-linejoin="round" stroke-dasharray="4,2"></path>
                <polygon id="Fill-111" fill="#F7AAC3" points="206.147495 259.837381 275.608491 259.837381 275.608491 213.717754 206.147495 213.717754"></polygon>
                <g id="Group-9" transform="translate(230.094691, 224.882876)" fill="#000000">
                    <path d="M17.0036035,11.6020976 C19.522219,11.6020976 21.5660135,13.6425934 21.5660135,16.1604328 C21.5660135,18.6767988 19.522219,20.7172947 17.0036035,20.7172947 C14.4835135,20.7172947 12.4411935,18.6767988 12.4411935,16.1604328 C12.4411935,13.6425934 14.4835135,11.6020976 17.0036035,11.6020976 Z M17.0036035,13.2595401 C15.3992396,13.2595401 14.1001177,14.5575017 14.1001177,16.1604328 C14.1001177,17.7618906 15.3992396,19.0598522 17.0036035,19.0598522 C18.6064929,19.0598522 19.9070894,17.7618906 19.9070894,16.1604328 C19.9070894,14.5575017 18.6064929,13.2595401 17.0036035,13.2595401 Z" id="Combined-Shape"></path>
                    <path d="M4.56093536,11.6020976 C7.08102541,11.6020976 9.12334532,13.6425934 9.12334532,16.1604328 C9.12334532,18.6767988 7.08102541,20.7172947 4.56093536,20.7172947 C2.04231991,20.7172947 3.2063241e-13,18.6767988 3.2063241e-13,16.1604328 C3.2063241e-13,13.6425934 2.04231991,11.6020976 4.56093536,11.6020976 Z M4.56093536,13.2595401 C2.95804602,13.2595401 1.65892411,14.5575017 1.65892411,16.1604328 C1.65892411,17.7618906 2.95804602,19.0598522 4.56093536,19.0598522 C6.1638247,19.0598522 7.46442121,17.7618906 7.46442121,16.1604328 C7.46442121,14.5575017 6.1638247,13.2595401 4.56093536,13.2595401 Z" id="Combined-Shape"></path>
                    <path d="M4.56093536,3.49942297e-13 C5.77158131,3.49942297e-13 6.93209089,0.480290007 7.78735844,1.3347937 C8.64262598,2.18929739 9.12334532,3.34877051 9.12334532,4.55833522 C9.12334532,7.07470127 7.08102541,9.11667044 4.56093536,9.11667044 C2.04231991,9.11667044 3.2063241e-13,7.07470127 3.2063241e-13,4.55833522 C3.2063241e-13,2.04049589 2.04231991,3.49942297e-13 4.56093536,3.49942297e-13 Z M4.56093536,1.65744251 C2.95804602,1.65744251 1.65892411,2.95540415 1.65892411,4.55833522 C1.65892411,6.159793 2.95804602,7.45775465 4.56093536,7.45775465 C6.1638247,7.45775465 7.46442121,6.159793 7.46442121,4.55833522 C7.46442121,2.95540415 6.1638247,1.65744251 4.56093536,1.65744251 Z" id="Combined-Shape"></path>
                    <polygon id="Path" points="18.2481652 7.45775465 18.2481652 1.79412041e-13 16.5892411 1.79412041e-13 16.5892411 1.65744251 14.1001177 1.65744251 14.1001177 3.31488502 16.5892411 3.31488502 16.5892411 7.45775465 14.1001177 7.45775465 14.1001177 9.11667044 20.7358141 9.11667044 20.7358141 7.45775465"></polygon>
                </g>
                <polygon id="Stroke-110" fill="#473793" points="137 106.110273 142 106.110273 142 101.110273 137 101.110273"></polygon>
                <polygon id="Stroke-110-Copy" fill="#473793" points="128 106.110273 133 106.110273 133 101.110273 128 101.110273"></polygon>
                <polygon id="Stroke-110-Copy-2" fill="#473793" points="119 106.110273 124 106.110273 124 101.110273 119 101.110273"></polygon>
                <line x1="162" y1="113.110273" x2="162" y2="158.110273" id="Stroke-102" stroke="#000000" stroke-width="2" stroke-linejoin="round"></line>
                <line x1="345" y1="179.610273" x2="343" y2="179.610273" id="Stroke-93" stroke="#000000" stroke-width="2" stroke-linecap="round" stroke-linejoin="round"></line>
                <line x1="351" y1="185.610273" x2="339" y2="185.610273" id="Stroke-94" stroke="#000000" stroke-width="2" stroke-linecap="round" stroke-linejoin="round"></line>
                <line x1="334" y1="185.610273" x2="332" y2="185.610273" id="Stroke-95" stroke="#000000" stroke-width="2" stroke-linecap="round" stroke-linejoin="round"></line>
                <line x1="356" y1="173.110273" x2="344" y2="173.110273" id="Stroke-91" stroke="#000000" stroke-width="2" stroke-linecap="round" stroke-linejoin="round"></line>
                <line x1="339" y1="173.110273" x2="334" y2="173.110273" id="Stroke-90" stroke="#000000" stroke-width="2" stroke-linecap="round" stroke-linejoin="round"></line>
                <line x1="360.075927" y1="179.544601" x2="351.167873" y2="179.544601" id="Stroke-92" stroke="#000000" stroke-width="2" stroke-linecap="round" stroke-linejoin="round"></line>
            </g>
        </g>
    </g>
</svg>